<svg width="78" height="24" viewBox="0 0 78 24" fill="none" xmlns="http://www.w3.org/2000/svg">
<path d="M17.3055 17.0547C17.3055 20.1801 15.2797 23.6142 9.9164 23.6142H0V0.771729H9.26045C13.4277 0.771729 16.1093 3.27977 16.1093 6.67526C16.1093 8.27655 15.5113 10.6495 12.8875 11.4212C15.9164 11.8457 17.3055 14.4309 17.3055 17.0547ZM5.209 5.30549V9.68491H8.8553C10.09 9.68491 10.9196 8.89391 10.9196 7.50485C10.9196 6.34729 10.3215 5.32478 8.89389 5.32478H5.209V5.30549ZM12.0579 16.5145C12.0579 15.3183 11.2283 13.9679 9.27974 13.9679H5.209V19.0804H9.27974C11.1318 19.0804 12.0579 17.8071 12.0579 16.5145Z" fill="white"/>
<path d="M18.8682 0H23.7685V23.6141H18.8682V0Z" fill="white"/>
<path d="M41.5177 8.16077V23.6141H36.6174V20.9518C36.0772 23.1125 33.6077 24 32.1801 24C28.0708 24 26.045 21.2219 26.045 16.4759V8.16077H30.9454V15.9164C30.9454 18.2701 32.373 19.1961 33.627 19.1961C34.9196 19.1961 36.6174 18.5016 36.6174 15.9164V8.16077H41.5177Z" fill="white"/>
<path d="M55.7942 8.21864L54.6366 12.8874C53.672 12.3473 52.9196 12.2894 52.418 12.2894C50.4887 12.2894 48.9067 13.8907 48.9067 18.463V23.6141H44.0064V8.16076H48.8489V11.4019C49.7363 8.85529 51.6077 7.75562 53.4984 7.75562C54.1929 7.75562 54.9839 7.83279 55.7942 8.21864Z" fill="white"/>
<path d="M68.1222 8.21864L66.9646 12.8874C66 12.3473 65.2476 12.2894 64.746 12.2894C62.8167 12.2894 61.2347 13.8907 61.2347 18.463V23.6141H56.3151V8.16076H61.1576V11.4019C62.045 8.85529 63.9164 7.75562 65.8071 7.75562C66.5402 7.75562 67.3312 7.83279 68.1222 8.21864Z" fill="white"/>
<path d="M73.8797 0C71.6643 0 69.8797 1.78462 69.8797 4C69.8797 6.21538 71.6643 8 73.8797 8C76.0951 8 77.8797 6.21538 77.8797 4C77.8797 1.78462 76.0643 0 73.8797 0ZM73.8797 0.615385C75.7566 0.615385 77.2643 2.12308 77.2643 4C77.2643 5.87692 75.7566 7.38462 73.8797 7.38462C72.0028 7.38462 70.4951 5.87692 70.4951 4C70.4951 2.12308 72.0028 0.615385 73.8797 0.615385ZM72.6489 2.15385V5.84615H73.2643V4.61538H74.3105L74.8028 5.84615H75.4182L74.8951 4.55385C75.3874 4.4 75.7259 3.93846 75.7259 3.38462C75.7259 2.70769 75.172 2.15385 74.4951 2.15385H72.6489ZM73.2643 2.76923H74.4951C74.8643 2.76923 75.1105 3.01538 75.1105 3.38462C75.1105 3.75385 74.8643 4 74.4951 4H73.2643V2.76923Z" fill="white"/>
</svg>
